<?xml version="1.0" encoding="utf-8"?>
<!-- Generator: Adobe Illustrator 14.0.0, SVG Export Plug-In . SVG Version: 6.00 Build 43363)  -->
<!DOCTYPE svg PUBLIC "-//W3C//DTD SVG 1.1//EN" "http://www.w3.org/Graphics/SVG/1.1/DTD/svg11.dtd">
<svg version="1.1" id="Layer_1" xmlns="http://www.w3.org/2000/svg" xmlns:xlink="http://www.w3.org/1999/xlink" x="0px" y="0px"
	 width="595.28px" height="841.89px" viewBox="0 0 595.28 841.89" enable-background="new 0 0 595.28 841.89" xml:space="preserve">
<g>
	<path fill="#FFFFFF" d="M440.667,345.049c-21.227,75.432-107.583,117.09-192.822,93.081
		c-85.261-24.03-137.146-104.64-115.919-180.05c21.248-75.421,107.594-117.101,192.865-93.07
		C410.02,189.029,461.926,269.639,440.667,345.049"/>
	<path fill="none" stroke="#000000" stroke-width="3.7263" stroke-linecap="round" stroke-linejoin="round" d="M440.667,345.049
		c-21.227,75.432-107.583,117.09-192.822,93.081c-85.261-24.03-137.146-104.64-115.919-180.05
		c21.248-75.421,107.594-117.101,192.865-93.07C410.02,189.029,461.926,269.639,440.667,345.049z"/>
	<path fill="#CCCCCC" d="M259.393,406.806c19.218,4.651,38.65-0.483,43.721-21.538c7.326-30.347-20.754-54.409-25.309-55.516
		c-4.555-1.096-40.52,7.541-47.824,37.855c-5.092,21.076,9.872,34.504,29.079,39.134L259.393,406.806z"/>
	<path fill="#13B5EA" d="M449.218,613.915c34.536,7.036,55.677,15.694,55.677,23.149c0,15.748-94.134,38.017-210.214,38.017
		c-116.091,0-210.214-22.269-210.214-38.017c0-7.047,18.906-15.168,50.155-21.979c-69.169,7.348-114.146,19.239-114.146,32.656
		c0,22.322,124.137,58.201,277.245,58.201s277.234-35.879,277.234-58.201C574.955,633.573,524.918,621.123,449.218,613.915"/>
	<path fill="none" stroke="#000000" stroke-width="3.7263" stroke-linecap="round" stroke-linejoin="round" d="M449.218,613.915
		c34.536,7.036,55.677,15.694,55.677,23.149c0,15.748-94.134,38.017-210.214,38.017c-116.091,0-210.214-22.269-210.214-38.017
		c0-7.047,18.906-15.168,50.155-21.979c-69.169,7.348-114.146,19.239-114.146,32.656c0,22.322,124.137,58.201,277.245,58.201
		s277.234-35.879,277.234-58.201C574.955,633.573,524.918,621.123,449.218,613.915z"/>
	<path fill="#13B5EA" d="M375.838,610.478c17.488,4.028,28.155,8.97,28.155,13.224c0,9.013-47.588,16.307-106.272,16.307
		c-58.695,0-106.272-7.294-106.272-16.307c0-4.028,9.571-8.658,25.362-12.547c-34.977,4.2-57.707,10.989-57.707,18.659
		c0,12.772,62.756,27.854,140.153,27.854c77.387,0,140.164-15.082,140.164-27.854C439.421,621.725,414.102,614.603,375.838,610.478"
		/>
	<path fill="none" stroke="#000000" stroke-width="3.7263" stroke-linecap="round" stroke-linejoin="round" d="M375.838,610.478
		c17.488,4.028,28.155,8.97,28.155,13.224c0,9.013-47.588,16.307-106.272,16.307c-58.695,0-106.272-7.294-106.272-16.307
		c0-4.028,9.571-8.658,25.362-12.547c-34.977,4.2-57.707,10.989-57.707,18.659c0,12.772,62.756,27.854,140.153,27.854
		c77.387,0,140.164-15.082,140.164-27.854C439.421,621.725,414.102,614.603,375.838,610.478z"/>
	<path fill="#FFFFFF" d="M402.489,511.316c-22.623-16.693-29.498-66.451-31.249-83.961c-35.417,18.058-79.557,23.117-123.396,10.774
		c-7.573-2.138-14.835-4.737-21.839-7.702h-0.032c0,0-72.918,80.889,14.137,142.721c0,0-7.949,21.431-6.198,30.067
		c1.719,8.615,10.699,34.192,34.525,29.713c23.837-4.501,44.569-18.315,44.569-30.067c0-11.73-2.417-21.42-3.792-22.795
		c6.553-1.375,30.218-5.006,39.725-14.502c3.459,11.752,9.335,32.817,28.671,27.285c19.347-5.532,42.829-18.648,45.268-26.243
		C425.295,558.979,430.14,531.694,402.489,511.316"/>
	<path fill="none" stroke="#000000" stroke-width="3.7263" stroke-linecap="round" stroke-linejoin="round" d="M402.489,511.316
		c-22.623-16.693-29.498-66.451-31.249-83.961c-35.417,18.058-79.557,23.117-123.396,10.774c-7.573-2.138-14.835-4.737-21.839-7.702
		h-0.032c0,0-72.918,80.889,14.137,142.721c0,0-7.949,21.431-6.198,30.067c1.719,8.615,10.699,34.192,34.525,29.713
		c23.837-4.501,44.569-18.315,44.569-30.067c0-11.73-2.417-21.42-3.792-22.795c6.553-1.375,30.218-5.006,39.725-14.502
		c3.459,11.752,9.335,32.817,28.671,27.285c19.347-5.532,42.829-18.648,45.268-26.243
		C425.295,558.979,430.14,531.694,402.489,511.316z"/>
	<path fill="#FFFFFF" d="M184.52,210.084c0,0-20.002-29.67-20.002-46.836c0-17.155,1.418-26.78,1.418-26.78
		s35.02,5.715,45.031,15.705c10.012,10.022,20.378,21.452,20.378,21.452"/>
	<path fill="none" stroke="#000000" stroke-width="3.7263" stroke-linecap="round" stroke-linejoin="round" d="M184.52,210.084
		c0,0-20.002-29.67-20.002-46.836c0-17.155,1.418-26.78,1.418-26.78s35.02,5.715,45.031,15.705
		c10.012,10.022,20.378,21.452,20.378,21.452"/>
	<path fill="#CCCCCC" d="M210.634,183.476c-17.735-19.368-35.417-26.63-45.998-29.369c-0.097,2.761-0.118,5.812-0.118,9.142
		c0,6.521,2.857,14.824,6.445,22.645c5.521,10.377,10.388,19.175,10.56,19.497c0,0.011,0,0.032,0.011,0.043L210.634,183.476z"/>
	<path d="M242.538,297.987c0,6.198-0.172,12.45-7.326,12.45c-7.165,0-20.808-8.443-20.808-14.663s5.801-11.258,12.966-11.258
		C234.514,284.517,242.538,291.768,242.538,297.987"/>
	<path d="M326.864,320.986c-3.609,5.07-7.09,10.248-1.257,14.395c5.844,4.146,21.85,5.178,25.438,0.129
		c3.62-5.049,1.815-12.536-4.007-16.683C341.205,314.67,330.463,315.938,326.864,320.986"/>
	<path d="M287.913,361.796c-1.343,5.586-10.044,8.271-19.476,6.016c-9.389-2.288-15.92-8.637-14.577-14.233
		c1.354-5.575,10.055-8.271,19.476-6.005C282.725,349.84,289.256,356.21,287.913,361.796"/>
	<path fill="none" stroke="#000000" stroke-width="3.7263" stroke-linecap="round" stroke-linejoin="round" d="M240.4,383.506
		c0,0,22.924,5.532,28.037-15.705"/>
	<path fill="none" stroke="#000000" stroke-width="3.7263" stroke-linecap="round" stroke-linejoin="round" d="M286.248,394.56
		c0,0-22.924-5.521-17.811-26.759"/>
	<path fill="#FFFFFF" d="M428.238,274.183c0,0,32.291-15.415,41.003-30.218c8.669-14.792,12.343-23.848,12.343-23.848
		s-33.118-12.826-46.814-9.26c-13.696,3.556-30.948,9.077-30.948,9.077"/>
	<path fill="none" stroke="#000000" stroke-width="3.7263" stroke-linecap="round" stroke-linejoin="round" d="M428.238,274.183
		c0,0,32.291-15.415,41.003-30.218c8.669-14.792,12.343-23.848,12.343-23.848s-33.118-12.826-46.814-9.26
		c-13.696,3.556-30.948,9.077-30.948,9.077"/>
	<path fill="#CCCCCC" d="M419.215,238.014c25.072-7.702,44.021-5.006,54.527-2.02c-1.321,2.428-2.825,5.092-4.501,7.971
		c-3.298,5.607-10.001,11.312-17.048,16.221c-10.033,6.155-18.681,11.301-18.992,11.473l-0.021,0.021L419.215,238.014z"/>
	<path fill="none" stroke="#000000" stroke-width="3.7263" stroke-linecap="round" stroke-linejoin="round" d="M184.52,210.084
		c0,0-20.002-29.67-20.002-46.836c0-17.155,1.418-26.78,1.418-26.78s35.02,5.715,45.031,15.705
		c10.012,10.022,20.378,21.452,20.378,21.452"/>
	<path fill="none" stroke="#000000" stroke-width="3.7263" stroke-linecap="round" stroke-linejoin="round" d="M428.238,274.183
		c0,0,32.291-15.415,41.003-30.218c8.669-14.792,12.343-23.848,12.343-23.848s-33.118-12.826-46.814-9.26
		c-13.696,3.556-30.948,9.077-30.948,9.077"/>
	<path fill="#13B5EA" d="M127.21,291.821c-0.075,16.747,3.115,33.301,9.195,48.995c43.366-16.758,69.19-42.786,69.19-42.786
		C167.235,298.03,140.896,294.346,127.21,291.821"/>
	<path fill="none" stroke="#000000" stroke-width="3.7263" stroke-linecap="round" stroke-linejoin="round" d="M127.21,291.821
		c-0.075,16.747,3.115,33.301,9.195,48.995c43.366-16.758,69.19-42.786,69.19-42.786C167.235,298.03,140.896,294.346,127.21,291.821
		z"/>
	<path fill="#13B5EA" d="M132.731,255.523l73.229,20.689l-46.062-68.782C147.631,221.127,138.274,237.305,132.731,255.523"/>
	<path fill="none" stroke="#000000" stroke-width="3.7263" stroke-linecap="round" stroke-linejoin="round" d="M132.731,255.523
		l73.229,20.689l-46.062-68.782C147.631,221.127,138.274,237.305,132.731,255.523z"/>
	<path fill="#13B5EA" d="M428.034,374.676c-15.243-6.059-55.301-22.827-69.062-36.62c0,0,9.324,37.662,37.007,73.401
		C408.827,401.209,419.72,388.855,428.034,374.676"/>
	<path fill="none" stroke="#000000" stroke-width="3.7263" stroke-linecap="round" stroke-linejoin="round" d="M428.034,374.676
		c-15.243-6.059-55.301-22.827-69.062-36.62c0,0,9.324,37.662,37.007,73.401C408.827,401.209,419.72,388.855,428.034,374.676z"/>
	<path fill="#13B5EA" d="M441.999,339.721c4.211-17.789,4.404-35.782,1.128-53.185l-68.793,33.645L441.999,339.721z"/>
	<path fill="none" stroke="#000000" stroke-width="3.7263" stroke-linecap="round" stroke-linejoin="round" d="M441.999,339.721
		c4.211-17.789,4.404-35.782,1.128-53.185l-68.793,33.645L441.999,339.721z"/>
	<path fill="#13B5EA" d="M332.966,255.975c12.343-2.997-6.424-18.67-5.64-21.624c0.795-2.954,39.037-5.833,40.025-10.205
		c0.623-2.718-23.418-14.416-22.387-18.229c0.806-2.997,36.126-0.773,53.281,0.494c-19.669-18.681-44.645-33.279-73.455-41.4
		c-29.144-8.218-58.405-8.755-85.121-2.868c15.555,7.981,45.783,23.923,44.945,26.855c-1.106,3.781-27.715,1.278-28.606,3.932
		c-1.407,4.232,29.745,26.598,28.886,29.53c-0.859,2.943-25.029,6.553-16.049,15.533c8.97,8.98,20.023,24.857,27.006,27.017
		C302.941,266.803,320.623,258.982,332.966,255.975"/>
	<path fill="none" stroke="#000000" stroke-width="3.7263" stroke-linecap="round" stroke-linejoin="round" d="M332.966,255.975
		c12.343-2.997-6.424-18.67-5.64-21.624c0.795-2.954,39.037-5.833,40.025-10.205c0.623-2.718-23.418-14.416-22.387-18.229
		c0.806-2.997,36.126-0.773,53.281,0.494c-19.669-18.681-44.645-33.279-73.455-41.4c-29.144-8.218-58.405-8.755-85.121-2.868
		c15.555,7.981,45.783,23.923,44.945,26.855c-1.106,3.781-27.715,1.278-28.606,3.932c-1.407,4.232,29.745,26.598,28.886,29.53
		c-0.859,2.943-25.029,6.553-16.049,15.533c8.97,8.98,20.023,24.857,27.006,27.017C302.941,266.803,320.623,258.982,332.966,255.975
		z"/>
	<path fill="#FFFFFF" d="M262.304,615.999c0,0-0.752,12.794,3.373,16.93"/>
	<path fill="none" stroke="#000000" stroke-width="3.7263" stroke-linecap="round" stroke-linejoin="round" d="M262.304,615.999
		c0,0-0.752,12.794,3.373,16.93"/>
	<path fill="#FFFFFF" d="M275.979,611.197c0,0,3.126,16.242,5.242,18.358"/>
	<path fill="none" stroke="#000000" stroke-width="3.7263" stroke-linecap="round" stroke-linejoin="round" d="M275.979,611.197
		c0,0,3.126,16.242,5.242,18.358"/>
	<path fill="#FFFFFF" d="M291.318,606.89c0,0,2.9,13.481,5.156,15.737"/>
	<path fill="none" stroke="#000000" stroke-width="3.7263" stroke-linecap="round" stroke-linejoin="round" d="M291.318,606.89
		c0,0,2.9,13.481,5.156,15.737"/>
	<path fill="#FFFFFF" d="M377.61,572.139c0,0-0.526,17.66,3.577,19.604"/>
	<path fill="none" stroke="#000000" stroke-width="3.7263" stroke-linecap="round" stroke-linejoin="round" d="M377.61,572.139
		c0,0-0.526,17.66,3.577,19.604"/>
	<path fill="#FFFFFF" d="M392.123,566.606c0,0-0.494,17.66,3.588,19.626"/>
	<path fill="none" stroke="#000000" stroke-width="3.7263" stroke-linecap="round" stroke-linejoin="round" d="M392.123,566.606
		c0,0-0.494,17.66,3.588,19.626"/>
	<path fill="#FFFFFF" d="M406.324,558.904c0,0-0.505,17.66,3.566,19.626"/>
	<path fill="none" stroke="#000000" stroke-width="3.7263" stroke-linecap="round" stroke-linejoin="round" d="M406.324,558.904
		c0,0-0.505,17.66,3.566,19.626"/>
	<path fill="#13B5EA" d="M200.225,521.683c1.268,4.469,3.029,8.98,5.307,13.492c82.521-6.198,149.359-30.443,174.507-62.251
		c-1.354-4.404-2.503-8.819-3.513-13.17C350.852,491.615,283.326,515.785,200.225,521.683"/>
	<path fill="none" stroke="#000000" stroke-width="3.7263" stroke-linecap="round" stroke-linejoin="round" d="M200.225,521.683
		c1.268,4.469,3.029,8.98,5.307,13.492c82.521-6.198,149.359-30.443,174.507-62.251c-1.354-4.404-2.503-8.819-3.513-13.17
		C350.852,491.615,283.326,515.785,200.225,521.683z"/>
	<path fill="#13B5EA" d="M373.002,441.342c-0.859-5.607-1.418-10.474-1.772-13.986c-0.559,0.29-1.149,0.559-1.729,0.827
		c-26.587,30.336-91.405,53.335-171.016,59.501c-0.73,4.512-1.128,9.185-1.096,13.943
		C279.352,495.923,346.254,472.473,373.002,441.342"/>
	<path fill="none" stroke="#000000" stroke-width="3.7263" stroke-linecap="round" stroke-linejoin="round" d="M373.002,441.342
		c-0.859-5.607-1.418-10.474-1.772-13.986c-0.559,0.29-1.149,0.559-1.729,0.827c-26.587,30.336-91.405,53.335-171.016,59.501
		c-0.73,4.512-1.128,9.185-1.096,13.943C279.352,495.923,346.254,472.473,373.002,441.342z"/>
	<path fill="#FFFFFF" d="M130.207,463.621c0,26.157,21.205,47.341,47.341,47.341c26.146,0,47.341-21.184,47.341-47.341
		c0-26.146-21.194-47.33-47.341-47.33C151.412,416.291,130.207,437.475,130.207,463.621"/>
	<path fill="none" stroke="#000000" stroke-width="3.7263" stroke-linecap="round" stroke-linejoin="round" d="M130.207,463.621
		c0,26.157,21.205,47.341,47.341,47.341c26.146,0,47.341-21.184,47.341-47.341c0-26.146-21.194-47.33-47.341-47.33
		C151.412,416.291,130.207,437.475,130.207,463.621z"/>
	<path fill="#FFFFFF" d="M177.548,416.291c-1.364,0-2.75,0.086-4.082,0.193c0.645,7.713,7.025,13.771,14.899,13.771
		c5.554,0,10.345-3.051,12.955-7.52C194.316,418.654,186.217,416.291,177.548,416.291"/>
	<path fill="none" stroke="#000000" stroke-width="3.7263" stroke-linecap="round" stroke-linejoin="round" d="M177.548,416.291
		c-1.364,0-2.75,0.086-4.082,0.193c0.645,7.713,7.025,13.771,14.899,13.771c5.554,0,10.345-3.051,12.955-7.52
		C194.316,418.654,186.217,416.291,177.548,416.291z"/>
	<path fill="#FFFFFF" d="M221,444.865c-3.996-9.238-10.86-16.94-19.465-22.011c-1.955,2.535-3.158,5.683-3.158,9.12
		c0,8.282,6.746,15.007,15.039,15.007C216.209,446.981,218.776,446.176,221,444.865"/>
	<path fill="none" stroke="#000000" stroke-width="3.7263" stroke-linecap="round" stroke-linejoin="round" d="M221,444.865
		c-3.996-9.238-10.86-16.94-19.465-22.011c-1.955,2.535-3.158,5.683-3.158,9.12c0,8.282,6.746,15.007,15.039,15.007
		C216.209,446.981,218.776,446.176,221,444.865z"/>
	<path fill="#FFFFFF" d="M211.966,458.723c0,7.229,5.103,13.256,11.892,14.685c0.666-3.158,1.031-6.413,1.031-9.786
		c0-6.639-1.375-12.955-3.846-18.681C215.693,447.25,211.966,452.535,211.966,458.723"/>
	<path fill="none" stroke="#000000" stroke-width="3.7263" stroke-linecap="round" stroke-linejoin="round" d="M211.966,458.723
		c0,7.229,5.103,13.256,11.892,14.685c0.666-3.158,1.031-6.413,1.031-9.786c0-6.639-1.375-12.955-3.846-18.681
		C215.693,447.25,211.966,452.535,211.966,458.723z"/>
	<path fill="#FFFFFF" d="M438.207,488.339c11.816-23.343,2.503-51.82-20.818-63.637c-23.311-11.827-51.81-2.503-63.626,20.818
		s-2.503,51.799,20.808,63.615S426.38,511.649,438.207,488.339"/>
	<path fill="none" stroke="#000000" stroke-width="3.7263" stroke-linecap="round" stroke-linejoin="round" d="M438.207,488.339
		c11.816-23.343,2.503-51.82-20.818-63.637c-23.311-11.827-51.81-2.503-63.626,20.818s-2.503,51.799,20.808,63.615
		S426.38,511.649,438.207,488.339z"/>
	<path fill="#FFFFFF" d="M349.949,465.211c-0.623,10.065,2.041,20.013,7.412,28.445c2.879-1.396,5.36-3.642,6.918-6.703
		c3.738-7.412,0.795-16.446-6.606-20.206C355.191,465.49,352.527,465.071,349.949,465.211"/>
	<path fill="none" stroke="#000000" stroke-width="3.7263" stroke-linecap="round" stroke-linejoin="round" d="M349.949,465.211
		c-0.623,10.065,2.041,20.013,7.412,28.445c2.879-1.396,5.36-3.642,6.918-6.703c3.738-7.412,0.795-16.446-6.606-20.206
		C355.191,465.49,352.527,465.071,349.949,465.211z"/>
	<path fill="#FFFFFF" d="M375.784,510.35c1.235,0.623,2.481,1.16,3.728,1.676c2.9-7.176-0.032-15.458-7.058-19.024
		c-4.941-2.503-10.592-1.966-14.964,0.859C361.895,500.649,368.039,506.439,375.784,510.35"/>
	<path fill="none" stroke="#000000" stroke-width="3.7263" stroke-linecap="round" stroke-linejoin="round" d="M375.784,510.35
		c1.235,0.623,2.481,1.16,3.728,1.676c2.9-7.176-0.032-15.458-7.058-19.024c-4.941-2.503-10.592-1.966-14.964,0.859
		C361.895,500.649,368.039,506.439,375.784,510.35z"/>
	<path fill="#FFFFFF" d="M364.279,456.939c3.266-6.445,1.418-14.115-3.964-18.477c-2.041,2.514-3.824,5.264-5.339,8.261
		c-3.029,5.919-4.641,12.171-5.027,18.401C355.75,465.49,361.486,462.45,364.279,456.939"/>
	<path fill="none" stroke="#000000" stroke-width="3.7263" stroke-linecap="round" stroke-linejoin="round" d="M364.279,456.939
		c3.266-6.445,1.418-14.115-3.964-18.477c-2.041,2.514-3.824,5.264-5.339,8.261c-3.029,5.919-4.641,12.171-5.027,18.401
		C355.75,465.49,361.486,462.45,364.279,456.939z"/>
	<polygon points="231.345,173.625 232.344,163.882 224.491,166.213 	"/>
	<polygon fill="none" stroke="#000000" stroke-width="3.7263" stroke-linecap="round" stroke-linejoin="round" points="
		231.345,173.625 232.344,163.882 224.491,166.213 	"/>
	<polygon points="403.821,219.935 409.482,218.162 404.047,212.157 	"/>
	<polygon fill="none" stroke="#000000" stroke-width="3.7263" stroke-linecap="round" stroke-linejoin="round" points="
		403.821,219.935 409.482,218.162 404.047,212.157 	"/>
	<line fill="#FFFFFF" x1="167.354" y1="358.842" x2="223.954" y2="352.375"/>
	
		<line fill="none" stroke="#000000" stroke-width="3.7263" stroke-linecap="round" stroke-linejoin="round" x1="167.354" y1="358.842" x2="223.954" y2="352.375"/>
	<line fill="#FFFFFF" x1="218.841" y1="342.46" x2="163.014" y2="328.506"/>
	
		<line fill="none" stroke="#000000" stroke-width="3.7263" stroke-linecap="round" stroke-linejoin="round" x1="218.841" y1="342.46" x2="163.014" y2="328.506"/>
	<line fill="#FFFFFF" x1="227.359" y1="333.608" x2="183.392" y2="299.18"/>
	
		<line fill="none" stroke="#000000" stroke-width="3.7263" stroke-linecap="round" stroke-linejoin="round" x1="227.359" y1="333.608" x2="183.392" y2="299.18"/>
	<line fill="#FFFFFF" x1="316.337" y1="378.607" x2="358.629" y2="411.006"/>
	
		<line fill="none" stroke="#000000" stroke-width="3.7263" stroke-linecap="round" stroke-linejoin="round" x1="316.337" y1="378.607" x2="358.629" y2="411.006"/>
	<line fill="#FFFFFF" x1="326.585" y1="373.15" x2="383.852" y2="385.429"/>
	
		<line fill="none" stroke="#000000" stroke-width="3.7263" stroke-linecap="round" stroke-linejoin="round" x1="326.585" y1="373.15" x2="383.852" y2="385.429"/>
	<line fill="#FFFFFF" x1="323.513" y1="357.134" x2="375.322" y2="353.385"/>
	
		<line fill="none" stroke="#000000" stroke-width="3.7263" stroke-linecap="round" stroke-linejoin="round" x1="323.513" y1="357.134" x2="375.322" y2="353.385"/>
</g>
</svg>

