<?xml version="1.0" encoding="iso-8859-1"?>
<!-- Generator: Adobe Illustrator 15.0.2, SVG Export Plug-In . SVG Version: 6.00 Build 0)  -->
<!DOCTYPE svg PUBLIC "-//W3C//DTD SVG 1.1//EN" "http://www.w3.org/Graphics/SVG/1.1/DTD/svg11.dtd">
<svg version="1.1" id="Layer_1" xmlns="http://www.w3.org/2000/svg" xmlns:xlink="http://www.w3.org/1999/xlink" x="0px" y="0px"
	 width="283.465px" height="595.275px" viewBox="0 0 283.465 595.275" style="enable-background:new 0 0 283.465 595.275;"
	 xml:space="preserve">
<g>
	<g>
		<path style="fill:#699B9B;" d="M97.017,86.562c2.974,0.605,4.792,1.351,4.792,1.994c0,1.356-8.105,3.273-18.102,3.273
			c-9.997,0-18.103-1.917-18.103-3.273c0-0.608,1.628-1.307,4.319-1.895c-5.955,0.633-9.829,1.657-9.829,2.814
			c0,1.922,10.69,5.011,23.875,5.011c13.185,0,23.873-3.089,23.873-5.011C107.843,88.255,103.534,87.183,97.017,86.562z"/>
	</g>
	<g>
		<path style="fill:#699B9B;" d="M90.697,86.266c1.505,0.347,2.424,0.772,2.424,1.139c0,0.776-4.098,1.404-9.151,1.404
			c-5.055,0-9.152-0.628-9.152-1.404c0-0.347,0.824-0.746,2.185-1.081c-3.011,0.361-4.97,0.946-4.97,1.607
			c0,1.1,5.404,2.398,12.069,2.398c6.667,0,12.071-1.298,12.071-2.398C96.172,87.234,93.992,86.621,90.697,86.266z"/>
	</g>
	<path d="M62.457,74.972c-1.862-1.06-3.58-2.292-3.58-4.869c0-2.491,2.348-4.439,4.869-4.439c1.575,0,2.864,0.573,3.866,1.719
		l-1.432,1.575c-0.573-0.717-1.575-1.289-2.578-1.289c-1.347,0-2.577,1.002-2.577,2.434c0,1.289,1.001,2.033,2.434,2.864
		l1.002,0.573c1.718,1.002,3.579,2.291,3.579,4.869c0,2.72-2.148,5.012-5.011,5.012c-2.004,0-3.58-1.003-4.496-2.292l1.661-1.718
		c0.716,1.289,1.918,1.948,3.121,1.948c1.433,0,2.577-1.232,2.577-2.807c0-1.375-0.859-2.09-2.434-3.008L62.457,74.972z"/>
	<path d="M79.087,77.463c0,1.89,0.687,3.207,2.176,4.353l-1.489,1.489c-0.516-0.315-1.347-1.317-1.833-2.148
		c-0.687,1.318-2.319,2.263-3.866,2.263c-2.377,0-4.181-1.689-4.181-4.296c0-2.835,1.947-4.295,5.041-4.295h2.147
		c0-1.804-0.916-3.208-2.721-3.208c-0.687,0-1.174,0.258-1.66,0.687l-1.203-1.546c0.888-0.745,1.689-1.088,2.863-1.088
		c2.979,0,4.727,2.32,4.727,5.012V77.463z M77.081,77.463v-0.831h-2.147c-2.148,0-2.979,0.975-2.979,2.492
		c0,1.317,1.06,2.348,2.119,2.348c2.062,0,3.15-2.376,3.15-2.376S77.081,78.093,77.081,77.463z"/>
	<path d="M83.551,87.43l-0.584-24.057h2.004v12.486l6.187-6.186l1.374,1.375l-5.097,5.097l5.842,5.843l-1.432,1.432l-6.873-6.873
		l-0.363,10.881"/>
	<path d="M103.461,77.463c0,1.89,0.688,3.207,2.177,4.353l-1.489,1.489c-0.516-0.315-1.346-1.317-1.833-2.148
		c-0.687,1.318-2.32,2.263-3.866,2.263c-2.376,0-4.181-1.689-4.181-4.296c0-2.835,1.947-4.295,5.041-4.295h2.148
		c0-1.804-0.917-3.208-2.721-3.208c-0.688,0-1.174,0.258-1.662,0.687l-1.202-1.546c0.887-0.745,1.689-1.088,2.864-1.088
		c2.978,0,4.725,2.32,4.725,5.012V77.463z M101.458,77.463v-0.831h-2.148c-2.148,0-2.978,0.975-2.978,2.492
		c0,1.317,1.059,2.348,2.119,2.348c2.061,0,3.15-2.376,3.15-2.376S101.458,78.093,101.458,77.463z"/>
	<path d="M110.148,66.18c0,0.744-0.602,1.346-1.347,1.346c-0.744,0-1.346-0.602-1.346-1.346c0-0.745,0.602-1.347,1.346-1.347
		C109.547,64.833,110.148,65.435,110.148,66.18z M109.834,83.133h-2.063V69.96h2.063V83.133z"/>
</g>
</svg>
