<?xml version="1.0" encoding="iso-8859-1"?>
<!-- Generator: Adobe Illustrator 15.0.2, SVG Export Plug-In . SVG Version: 6.00 Build 0)  -->
<!DOCTYPE svg PUBLIC "-//W3C//DTD SVG 1.1//EN" "http://www.w3.org/Graphics/SVG/1.1/DTD/svg11.dtd">
<svg version="1.1" id="Layer_1" xmlns="http://www.w3.org/2000/svg" xmlns:xlink="http://www.w3.org/1999/xlink" x="0px" y="0px"
	 width="595.281px" height="841.89px" viewBox="0 0 595.281 841.89" style="enable-background:new 0 0 595.281 841.89;"
	 xml:space="preserve">
<g>
	<path style="fill:#FFFFFF;" d="M440.667,345.049c-21.227,75.433-107.584,117.089-192.822,93.082
		C162.584,414.1,110.699,333.49,131.926,258.08c21.248-75.421,107.594-117.101,192.865-93.07
		C410.019,189.029,461.925,269.639,440.667,345.049"/>
	<path style="fill:none;stroke:#000000;stroke-width:3.7263;stroke-linecap:round;stroke-linejoin:round;" d="M440.667,345.049
		c-21.227,75.433-107.584,117.089-192.822,93.082C162.584,414.1,110.699,333.49,131.926,258.08
		c21.248-75.421,107.594-117.101,192.865-93.07C410.019,189.029,461.925,269.639,440.667,345.049z"/>
	<path style="fill:#CCCCCC;" d="M259.393,406.806c19.218,4.651,38.65-0.482,43.722-21.538c7.326-30.347-20.755-54.409-25.31-55.516
		c-4.555-1.096-40.52,7.541-47.824,37.855c-5.092,21.076,9.872,34.504,29.079,39.134L259.393,406.806z"/>
	<path style="fill:#13B5EA;" d="M449.218,613.916c34.535,7.035,55.676,15.693,55.676,23.148c0,15.748-94.133,38.018-210.213,38.018
		c-116.091,0-210.214-22.27-210.214-38.018c0-7.047,18.906-15.168,50.155-21.979c-69.169,7.348-114.146,19.238-114.146,32.656
		c0,22.32,124.137,58.201,277.245,58.201c153.109,0,277.234-35.881,277.234-58.201C574.955,633.574,524.917,621.123,449.218,613.916
		"/>
	<path style="fill:none;stroke:#000000;stroke-width:3.7263;stroke-linecap:round;stroke-linejoin:round;" d="M449.218,613.916
		c34.535,7.035,55.676,15.693,55.676,23.148c0,15.748-94.133,38.018-210.213,38.018c-116.091,0-210.214-22.27-210.214-38.018
		c0-7.047,18.906-15.168,50.155-21.979c-69.169,7.348-114.146,19.238-114.146,32.656c0,22.32,124.137,58.201,277.245,58.201
		c153.109,0,277.234-35.881,277.234-58.201C574.955,633.574,524.917,621.123,449.218,613.916z"/>
	<path style="fill:#13B5EA;" d="M375.837,610.478c17.488,4.027,28.156,8.971,28.156,13.225c0,9.012-47.588,16.307-106.272,16.307
		c-58.695,0-106.272-7.295-106.272-16.307c0-4.029,9.571-8.658,25.362-12.547c-34.977,4.199-57.707,10.988-57.707,18.658
		c0,12.771,62.756,27.854,140.153,27.854c77.387,0,140.164-15.082,140.164-27.854C439.421,621.724,414.101,614.603,375.837,610.478"
		/>
	<path style="fill:none;stroke:#000000;stroke-width:3.7263;stroke-linecap:round;stroke-linejoin:round;" d="M375.837,610.478
		c17.488,4.027,28.156,8.971,28.156,13.225c0,9.012-47.588,16.307-106.272,16.307c-58.695,0-106.272-7.295-106.272-16.307
		c0-4.029,9.571-8.658,25.362-12.547c-34.977,4.199-57.707,10.988-57.707,18.658c0,12.771,62.756,27.854,140.153,27.854
		c77.387,0,140.164-15.082,140.164-27.854C439.421,621.724,414.101,614.603,375.837,610.478z"/>
	<path style="fill:#FFFFFF;" d="M402.49,511.316c-22.623-16.693-29.498-66.451-31.25-83.961
		c-35.416,18.059-79.557,23.117-123.396,10.773c-7.573-2.137-14.835-4.736-21.839-7.701h-0.032c0,0-72.918,80.889,14.137,142.721
		c0,0-7.949,21.432-6.198,30.066c1.719,8.615,10.699,34.193,34.525,29.713c23.837-4.5,44.568-18.314,44.568-30.066
		c0-11.73-2.416-21.42-3.791-22.795c6.553-1.375,30.217-5.006,39.725-14.502c3.459,11.752,9.336,32.816,28.672,27.285
		c19.346-5.531,42.828-18.648,45.268-26.242C425.294,558.978,430.14,531.695,402.49,511.316"/>
	<path style="fill:none;stroke:#000000;stroke-width:3.7263;stroke-linecap:round;stroke-linejoin:round;" d="M402.49,511.316
		c-22.623-16.693-29.498-66.451-31.25-83.961c-35.416,18.059-79.557,23.117-123.396,10.773c-7.573-2.137-14.835-4.736-21.839-7.701
		h-0.032c0,0-72.918,80.889,14.137,142.721c0,0-7.949,21.432-6.198,30.066c1.719,8.615,10.699,34.193,34.525,29.713
		c23.837-4.5,44.568-18.314,44.568-30.066c0-11.73-2.416-21.42-3.791-22.795c6.553-1.375,30.217-5.006,39.725-14.502
		c3.459,11.752,9.336,32.816,28.672,27.285c19.346-5.531,42.828-18.648,45.268-26.242
		C425.294,558.978,430.14,531.695,402.49,511.316z"/>
	<path style="fill:#FFFFFF;" d="M184.52,210.084c0,0-20.002-29.67-20.002-46.836c0-17.155,1.418-26.78,1.418-26.78
		s35.02,5.715,45.031,15.705c10.012,10.022,20.378,21.452,20.378,21.452"/>
	<path style="fill:none;stroke:#000000;stroke-width:3.7263;stroke-linecap:round;stroke-linejoin:round;" d="M184.52,210.084
		c0,0-20.002-29.67-20.002-46.836c0-17.155,1.418-26.78,1.418-26.78s35.02,5.715,45.031,15.705
		c10.012,10.022,20.378,21.452,20.378,21.452"/>
	<path style="fill:#CCCCCC;" d="M210.634,183.476c-17.735-19.368-35.417-26.63-45.998-29.369c-0.097,2.761-0.118,5.812-0.118,9.142
		c0,6.521,2.857,14.824,6.445,22.645c5.521,10.377,10.388,19.175,10.56,19.497c0,0.011,0,0.032,0.011,0.043L210.634,183.476z"/>
	<path d="M242.538,297.987c0,6.198-0.172,12.45-7.326,12.45c-7.165,0-20.808-8.443-20.808-14.663c0-6.22,5.801-11.258,12.966-11.258
		C234.514,284.517,242.538,291.768,242.538,297.987"/>
	<path d="M326.865,320.986c-3.609,5.07-7.09,10.248-1.258,14.395c5.844,4.146,21.85,5.178,25.438,0.129
		c3.621-5.049,1.816-12.536-4.006-16.683C341.205,314.67,330.462,315.938,326.865,320.986"/>
	<path d="M287.913,361.796c-1.343,5.586-10.044,8.271-19.476,6.016c-9.389-2.288-15.92-8.637-14.577-14.233
		c1.354-5.575,10.055-8.271,19.476-6.005C282.725,349.84,289.256,356.21,287.913,361.796"/>
	<path style="fill:none;stroke:#000000;stroke-width:3.7263;stroke-linecap:round;stroke-linejoin:round;" d="M240.4,383.506
		c0,0,22.924,5.532,28.037-15.705"/>
	<path style="fill:none;stroke:#000000;stroke-width:3.7263;stroke-linecap:round;stroke-linejoin:round;" d="M286.248,394.56
		c0,0-22.924-5.521-17.811-26.759"/>
	<path style="fill:#FFFFFF;" d="M428.238,274.183c0,0,32.291-15.415,41.004-30.218c8.668-14.792,12.342-23.848,12.342-23.848
		s-33.117-12.826-46.814-9.26c-13.695,3.556-30.947,9.077-30.947,9.077"/>
	<path style="fill:none;stroke:#000000;stroke-width:3.7263;stroke-linecap:round;stroke-linejoin:round;" d="M428.238,274.183
		c0,0,32.291-15.415,41.004-30.218c8.668-14.792,12.342-23.848,12.342-23.848s-33.117-12.826-46.814-9.26
		c-13.695,3.556-30.947,9.077-30.947,9.077"/>
	<path style="fill:#CCCCCC;" d="M419.214,238.014c25.072-7.702,44.021-5.006,54.527-2.02c-1.32,2.428-2.824,5.092-4.5,7.971
		c-3.299,5.607-10.002,11.312-17.049,16.221c-10.033,6.155-18.682,11.301-18.992,11.473l-0.021,0.021L419.214,238.014z"/>
	<path style="fill:none;stroke:#000000;stroke-width:3.7263;stroke-linecap:round;stroke-linejoin:round;" d="M184.52,210.084
		c0,0-20.002-29.67-20.002-46.836c0-17.155,1.418-26.78,1.418-26.78s35.02,5.715,45.031,15.705
		c10.012,10.022,20.378,21.452,20.378,21.452"/>
	<path style="fill:none;stroke:#000000;stroke-width:3.7263;stroke-linecap:round;stroke-linejoin:round;" d="M428.238,274.183
		c0,0,32.291-15.415,41.004-30.218c8.668-14.792,12.342-23.848,12.342-23.848s-33.117-12.826-46.814-9.26
		c-13.695,3.556-30.947,9.077-30.947,9.077"/>
	<path style="fill:#13B5EA;" d="M127.21,291.821c-0.075,16.747,3.115,33.301,9.195,48.995c43.366-16.758,69.19-42.786,69.19-42.786
		C167.235,298.03,140.896,294.346,127.21,291.821"/>
	<path style="fill:none;stroke:#000000;stroke-width:3.7263;stroke-linecap:round;stroke-linejoin:round;" d="M127.21,291.821
		c-0.075,16.747,3.115,33.301,9.195,48.995c43.366-16.758,69.19-42.786,69.19-42.786C167.235,298.03,140.896,294.346,127.21,291.821
		z"/>
	<path style="fill:#13B5EA;" d="M132.731,255.523l73.229,20.689l-46.062-68.782C147.631,221.127,138.274,237.305,132.731,255.523"/>
	<path style="fill:none;stroke:#000000;stroke-width:3.7263;stroke-linecap:round;stroke-linejoin:round;" d="M132.731,255.523
		l73.229,20.689l-46.062-68.782C147.631,221.127,138.274,237.305,132.731,255.523z"/>
	<path style="fill:#13B5EA;" d="M428.035,374.676c-15.244-6.059-55.301-22.827-69.062-36.62c0,0,9.324,37.662,37.006,73.401
		C408.828,401.209,419.72,388.855,428.035,374.676"/>
	<path style="fill:none;stroke:#000000;stroke-width:3.7263;stroke-linecap:round;stroke-linejoin:round;" d="M428.035,374.676
		c-15.244-6.059-55.301-22.827-69.062-36.62c0,0,9.324,37.662,37.006,73.401C408.828,401.209,419.72,388.855,428.035,374.676z"/>
	<path style="fill:#13B5EA;" d="M442,339.721c4.211-17.789,4.404-35.782,1.127-53.185l-68.793,33.645L442,339.721z"/>
	<path style="fill:none;stroke:#000000;stroke-width:3.7263;stroke-linecap:round;stroke-linejoin:round;" d="M442,339.721
		c4.211-17.789,4.404-35.782,1.127-53.185l-68.793,33.645L442,339.721z"/>
	<path style="fill:#13B5EA;" d="M332.966,255.975c12.342-2.997-6.424-18.67-5.641-21.624c0.795-2.954,39.037-5.833,40.025-10.205
		c0.623-2.718-23.418-14.416-22.387-18.229c0.805-2.997,36.125-0.773,53.281,0.494c-19.67-18.681-44.646-33.279-73.455-41.4
		c-29.145-8.218-58.406-8.755-85.122-2.868c15.555,7.981,45.783,23.923,44.945,26.855c-1.106,3.781-27.715,1.278-28.606,3.932
		c-1.407,4.232,29.745,26.598,28.886,29.53c-0.859,2.943-25.029,6.553-16.049,15.533c8.97,8.98,20.023,24.857,27.006,27.017
		C302.941,266.803,320.623,258.982,332.966,255.975"/>
	<path style="fill:none;stroke:#000000;stroke-width:3.7263;stroke-linecap:round;stroke-linejoin:round;" d="M332.966,255.975
		c12.342-2.997-6.424-18.67-5.641-21.624c0.795-2.954,39.037-5.833,40.025-10.205c0.623-2.718-23.418-14.416-22.387-18.229
		c0.805-2.997,36.125-0.773,53.281,0.494c-19.67-18.681-44.646-33.279-73.455-41.4c-29.145-8.218-58.406-8.755-85.122-2.868
		c15.555,7.981,45.783,23.923,44.945,26.855c-1.106,3.781-27.715,1.278-28.606,3.932c-1.407,4.232,29.745,26.598,28.886,29.53
		c-0.859,2.943-25.029,6.553-16.049,15.533c8.97,8.98,20.023,24.857,27.006,27.017C302.941,266.803,320.623,258.982,332.966,255.975
		z"/>
	<path style="fill:#FFFFFF;" d="M262.304,616c0,0-0.752,12.793,3.373,16.93"/>
	<path style="fill:none;stroke:#000000;stroke-width:3.7263;stroke-linecap:round;stroke-linejoin:round;" d="M262.304,616
		c0,0-0.752,12.793,3.373,16.93"/>
	<path style="fill:#FFFFFF;" d="M275.979,611.197c0,0,3.126,16.242,5.242,18.357"/>
	<path style="fill:none;stroke:#000000;stroke-width:3.7263;stroke-linecap:round;stroke-linejoin:round;" d="M275.979,611.197
		c0,0,3.126,16.242,5.242,18.357"/>
	<path style="fill:#FFFFFF;" d="M291.318,606.89c0,0,2.9,13.48,5.156,15.736"/>
	<path style="fill:none;stroke:#000000;stroke-width:3.7263;stroke-linecap:round;stroke-linejoin:round;" d="M291.318,606.89
		c0,0,2.9,13.48,5.156,15.736"/>
	<path style="fill:#FFFFFF;" d="M377.611,572.138c0,0-0.527,17.66,3.576,19.605"/>
	<path style="fill:none;stroke:#000000;stroke-width:3.7263;stroke-linecap:round;stroke-linejoin:round;" d="M377.611,572.138
		c0,0-0.527,17.66,3.576,19.605"/>
	<path style="fill:#FFFFFF;" d="M392.123,566.607c0,0-0.494,17.658,3.588,19.625"/>
	<path style="fill:none;stroke:#000000;stroke-width:3.7263;stroke-linecap:round;stroke-linejoin:round;" d="M392.123,566.607
		c0,0-0.494,17.658,3.588,19.625"/>
	<path style="fill:#FFFFFF;" d="M406.324,558.904c0,0-0.504,17.66,3.566,19.627"/>
	<path style="fill:none;stroke:#000000;stroke-width:3.7263;stroke-linecap:round;stroke-linejoin:round;" d="M406.324,558.904
		c0,0-0.504,17.66,3.566,19.627"/>
	<path style="fill:#13B5EA;" d="M200.225,521.683c1.268,4.469,3.029,8.98,5.307,13.492c82.521-6.199,149.358-30.443,174.506-62.252
		c-1.354-4.404-2.502-8.818-3.512-13.17C350.851,491.615,283.326,515.785,200.225,521.683"/>
	<path style="fill:none;stroke:#000000;stroke-width:3.7263;stroke-linecap:round;stroke-linejoin:round;" d="M200.225,521.683
		c1.268,4.469,3.029,8.98,5.307,13.492c82.521-6.199,149.358-30.443,174.506-62.252c-1.354-4.404-2.502-8.818-3.512-13.17
		C350.851,491.615,283.326,515.785,200.225,521.683z"/>
	<path style="fill:#13B5EA;" d="M373.001,441.341c-0.859-5.605-1.418-10.473-1.771-13.984c-0.559,0.289-1.148,0.559-1.729,0.826
		c-26.588,30.336-91.405,53.334-171.017,59.5c-0.73,4.514-1.128,9.186-1.096,13.943
		C279.352,495.923,346.253,472.472,373.001,441.341"/>
	<path style="fill:none;stroke:#000000;stroke-width:3.7263;stroke-linecap:round;stroke-linejoin:round;" d="M373.001,441.341
		c-0.859-5.605-1.418-10.473-1.771-13.984c-0.559,0.289-1.148,0.559-1.729,0.826c-26.588,30.336-91.405,53.334-171.017,59.5
		c-0.73,4.514-1.128,9.186-1.096,13.943C279.352,495.923,346.253,472.472,373.001,441.341z"/>
	<path style="fill:#FFFFFF;" d="M130.207,463.621c0,26.158,21.205,47.342,47.341,47.342c26.146,0,47.341-21.184,47.341-47.342
		c0-26.146-21.194-47.33-47.341-47.33C151.412,416.291,130.207,437.474,130.207,463.621"/>
	<path style="fill:none;stroke:#000000;stroke-width:3.7263;stroke-linecap:round;stroke-linejoin:round;" d="M130.207,463.621
		c0,26.158,21.205,47.342,47.341,47.342c26.146,0,47.341-21.184,47.341-47.342c0-26.146-21.194-47.33-47.341-47.33
		C151.412,416.291,130.207,437.474,130.207,463.621z"/>
	<path style="fill:#FFFFFF;" d="M177.548,416.291c-1.364,0-2.75,0.086-4.082,0.193c0.645,7.712,7.025,13.771,14.899,13.771
		c5.554,0,10.345-3.051,12.955-7.52C194.316,418.654,186.217,416.291,177.548,416.291"/>
	<path style="fill:none;stroke:#000000;stroke-width:3.7263;stroke-linecap:round;stroke-linejoin:round;" d="M177.548,416.291
		c-1.364,0-2.75,0.086-4.082,0.193c0.645,7.712,7.025,13.771,14.899,13.771c5.554,0,10.345-3.051,12.955-7.52
		C194.316,418.654,186.217,416.291,177.548,416.291z"/>
	<path style="fill:#FFFFFF;" d="M221,444.865c-3.996-9.238-10.86-16.939-19.465-22.012c-1.955,2.535-3.158,5.684-3.158,9.121
		c0,8.281,6.746,15.008,15.039,15.008C216.209,446.982,218.776,446.175,221,444.865"/>
	<path style="fill:none;stroke:#000000;stroke-width:3.7263;stroke-linecap:round;stroke-linejoin:round;" d="M221,444.865
		c-3.996-9.238-10.86-16.939-19.465-22.012c-1.955,2.535-3.158,5.684-3.158,9.121c0,8.281,6.746,15.008,15.039,15.008
		C216.209,446.982,218.776,446.175,221,444.865z"/>
	<path style="fill:#FFFFFF;" d="M211.966,458.722c0,7.23,5.103,13.256,11.892,14.686c0.666-3.158,1.031-6.412,1.031-9.785
		c0-6.639-1.375-12.955-3.846-18.682C215.693,447.25,211.966,452.535,211.966,458.722"/>
	<path style="fill:none;stroke:#000000;stroke-width:3.7263;stroke-linecap:round;stroke-linejoin:round;" d="M211.966,458.722
		c0,7.23,5.103,13.256,11.892,14.686c0.666-3.158,1.031-6.412,1.031-9.785c0-6.639-1.375-12.955-3.846-18.682
		C215.693,447.25,211.966,452.535,211.966,458.722z"/>
	<path style="fill:#FFFFFF;" d="M438.207,488.339c11.816-23.344,2.504-51.82-20.818-63.637
		c-23.311-11.828-51.809-2.504-63.625,20.816c-11.816,23.322-2.504,51.801,20.809,63.615
		C397.882,520.951,426.38,511.65,438.207,488.339"/>
	<path style="fill:none;stroke:#000000;stroke-width:3.7263;stroke-linecap:round;stroke-linejoin:round;" d="M438.207,488.339
		c11.816-23.344,2.504-51.82-20.818-63.637c-23.311-11.828-51.809-2.504-63.625,20.816c-11.816,23.322-2.504,51.801,20.809,63.615
		C397.882,520.951,426.38,511.65,438.207,488.339z"/>
	<path style="fill:#FFFFFF;" d="M349.949,465.21c-0.623,10.066,2.041,20.014,7.412,28.445c2.879-1.396,5.359-3.643,6.918-6.703
		c3.738-7.412,0.795-16.445-6.605-20.205C355.191,465.49,352.527,465.072,349.949,465.21"/>
	<path style="fill:none;stroke:#000000;stroke-width:3.7263;stroke-linecap:round;stroke-linejoin:round;" d="M349.949,465.21
		c-0.623,10.066,2.041,20.014,7.412,28.445c2.879-1.396,5.359-3.643,6.918-6.703c3.738-7.412,0.795-16.445-6.605-20.205
		C355.191,465.49,352.527,465.072,349.949,465.21z"/>
	<path style="fill:#FFFFFF;" d="M375.785,510.349c1.234,0.623,2.48,1.16,3.727,1.678c2.9-7.178-0.031-15.459-7.057-19.025
		c-4.941-2.502-10.592-1.965-14.965,0.859C361.894,500.65,368.039,506.439,375.785,510.349"/>
	<path style="fill:none;stroke:#000000;stroke-width:3.7263;stroke-linecap:round;stroke-linejoin:round;" d="M375.785,510.349
		c1.234,0.623,2.48,1.16,3.727,1.678c2.9-7.178-0.031-15.459-7.057-19.025c-4.941-2.502-10.592-1.965-14.965,0.859
		C361.894,500.65,368.039,506.439,375.785,510.349z"/>
	<path style="fill:#FFFFFF;" d="M364.279,456.939c3.266-6.445,1.418-14.115-3.963-18.477c-2.041,2.514-3.824,5.264-5.34,8.26
		c-3.029,5.92-4.641,12.172-5.027,18.402C355.75,465.49,361.486,462.451,364.279,456.939"/>
	<path style="fill:none;stroke:#000000;stroke-width:3.7263;stroke-linecap:round;stroke-linejoin:round;" d="M364.279,456.939
		c3.266-6.445,1.418-14.115-3.963-18.477c-2.041,2.514-3.824,5.264-5.34,8.26c-3.029,5.92-4.641,12.172-5.027,18.402
		C355.75,465.49,361.486,462.451,364.279,456.939z"/>
	<polygon points="231.345,173.625 232.344,163.882 224.491,166.213 	"/>
	<polygon style="fill:none;stroke:#000000;stroke-width:3.7263;stroke-linecap:round;stroke-linejoin:round;" points="
		231.345,173.625 232.344,163.882 224.491,166.213 	"/>
	<polygon points="403.822,219.935 409.482,218.162 404.046,212.157 	"/>
	<polygon style="fill:none;stroke:#000000;stroke-width:3.7263;stroke-linecap:round;stroke-linejoin:round;" points="
		403.822,219.935 409.482,218.162 404.046,212.157 	"/>
	<line style="fill:none;" x1="167.354" y1="358.842" x2="223.954" y2="352.375"/>
	
		<line style="fill:none;stroke:#000000;stroke-width:3.7263;stroke-linecap:round;stroke-linejoin:round;" x1="167.354" y1="358.842" x2="223.954" y2="352.375"/>
	<line style="fill:none;" x1="218.841" y1="342.46" x2="163.014" y2="328.506"/>
	
		<line style="fill:none;stroke:#000000;stroke-width:3.7263;stroke-linecap:round;stroke-linejoin:round;" x1="218.841" y1="342.46" x2="163.014" y2="328.506"/>
	<line style="fill:none;" x1="227.359" y1="333.608" x2="183.392" y2="299.18"/>
	
		<line style="fill:none;stroke:#000000;stroke-width:3.7263;stroke-linecap:round;stroke-linejoin:round;" x1="227.359" y1="333.608" x2="183.392" y2="299.18"/>
	<line style="fill:none;" x1="316.337" y1="378.607" x2="358.628" y2="411.006"/>
	
		<line style="fill:none;stroke:#000000;stroke-width:3.7263;stroke-linecap:round;stroke-linejoin:round;" x1="316.337" y1="378.607" x2="358.628" y2="411.006"/>
	<line style="fill:none;" x1="326.585" y1="373.15" x2="383.851" y2="385.429"/>
	
		<line style="fill:none;stroke:#000000;stroke-width:3.7263;stroke-linecap:round;stroke-linejoin:round;" x1="326.585" y1="373.15" x2="383.851" y2="385.429"/>
	<line style="fill:none;" x1="323.513" y1="357.134" x2="375.322" y2="353.385"/>
	
		<line style="fill:none;stroke:#000000;stroke-width:3.7263;stroke-linecap:round;stroke-linejoin:round;" x1="323.513" y1="357.134" x2="375.322" y2="353.385"/>
</g>
</svg>
