<?xml version="1.0" encoding="iso-8859-1"?>
<!-- Generator: Adobe Illustrator 15.0.2, SVG Export Plug-In . SVG Version: 6.00 Build 0)  -->
<!DOCTYPE svg PUBLIC "-//W3C//DTD SVG 1.1//EN" "http://www.w3.org/Graphics/SVG/1.1/DTD/svg11.dtd">
<svg version="1.1" id="logo" xmlns="http://www.w3.org/2000/svg" xmlns:xlink="http://www.w3.org/1999/xlink" x="0px" y="0px"
	 width="72px" height="47.52px" viewBox="0 0 72 47.52" style="enable-background:new 0 0 72 47.52;" xml:space="preserve">
<g>
	<path d="M49.017,32.076c2.974,0.604,4.792,1.35,4.792,1.993c0,1.356-8.104,3.272-18.101,3.272c-9.997,0-18.103-1.916-18.103-3.272
		c0-0.608,1.628-1.308,4.319-1.895c-5.955,0.633-9.829,1.657-9.829,2.813c0,1.923,10.69,5.012,23.875,5.012
		c13.185,0,23.873-3.089,23.873-5.012C59.843,33.769,55.533,32.696,49.017,32.076z"/>
</g>
<g>
	<path d="M42.697,31.779c1.504,0.348,2.424,0.773,2.424,1.139c0,0.776-4.098,1.404-9.151,1.404c-5.055,0-9.152-0.628-9.152-1.404
		c0-0.347,0.824-0.746,2.185-1.08c-3.011,0.361-4.97,0.945-4.97,1.606c0,1.1,5.404,2.397,12.069,2.397
		c6.667,0,12.071-1.298,12.071-2.397C48.172,32.748,45.992,32.135,42.697,31.779z"/>
</g>
<path d="M14.457,20.485c-1.862-1.06-3.58-2.292-3.58-4.869c0-2.491,2.348-4.439,4.869-4.439c1.575,0,2.864,0.573,3.866,1.719
	l-1.432,1.575c-0.573-0.717-1.575-1.289-2.578-1.289c-1.347,0-2.577,1.002-2.577,2.434c0,1.289,1.001,2.033,2.434,2.864l1.002,0.573
	c1.718,1.002,3.579,2.291,3.579,4.869c0,2.72-2.148,5.012-5.011,5.012c-2.004,0-3.58-1.004-4.496-2.292l1.661-1.718
	c0.716,1.29,1.918,1.948,3.121,1.948c1.433,0,2.577-1.231,2.577-2.806c0-1.375-0.859-2.09-2.434-3.008L14.457,20.485z"/>
<path d="M31.087,22.977c0,1.89,0.687,3.207,2.176,4.354l-1.489,1.488c-0.516-0.315-1.347-1.316-1.833-2.148
	c-0.687,1.318-2.319,2.264-3.866,2.264c-2.377,0-4.181-1.689-4.181-4.296c0-2.835,1.947-4.295,5.041-4.295h2.147
	c0-1.804-0.916-3.208-2.721-3.208c-0.687,0-1.174,0.258-1.66,0.687l-1.203-1.546c0.888-0.745,1.689-1.088,2.863-1.088
	c2.979,0,4.727,2.32,4.727,5.012V22.977z M29.081,22.977v-0.831h-2.147c-2.148,0-2.979,0.975-2.979,2.492
	c0,1.317,1.06,2.348,2.119,2.348c2.062,0,3.15-2.376,3.15-2.376S29.081,23.606,29.081,22.977z"/>
<path d="M35.551,32.943L34.967,8.886h2.004v12.486l6.188-6.186l1.373,1.375l-5.098,5.097l5.842,5.843l-1.432,1.432l-6.873-6.874
	l-0.363,10.881"/>
<path d="M55.461,22.977c0,1.89,0.688,3.207,2.178,4.354l-1.49,1.488c-0.516-0.315-1.346-1.316-1.832-2.148
	c-0.688,1.318-2.32,2.264-3.867,2.264c-2.376,0-4.181-1.689-4.181-4.296c0-2.835,1.947-4.295,5.04-4.295h2.148
	c0-1.804-0.917-3.208-2.721-3.208c-0.688,0-1.174,0.258-1.662,0.687l-1.201-1.546c0.887-0.745,1.689-1.088,2.863-1.088
	c2.979,0,4.725,2.32,4.725,5.012V22.977z M53.457,22.977v-0.831h-2.148c-2.147,0-2.978,0.975-2.978,2.492
	c0,1.317,1.06,2.348,2.118,2.348c2.062,0,3.15-2.376,3.15-2.376S53.457,23.606,53.457,22.977z"/>
<path d="M62.148,11.693c0,0.744-0.602,1.346-1.347,1.346c-0.744,0-1.346-0.602-1.346-1.346c0-0.745,0.602-1.347,1.346-1.347
	C61.547,10.347,62.148,10.948,62.148,11.693z M61.834,28.646h-2.063V15.474h2.063V28.646z"/>
</svg>
